<?xml version="1.0" encoding="utf-8"?>
<!-- Generator: Adobe Illustrator 16.0.0, SVG Export Plug-In . SVG Version: 6.00 Build 0)  -->
<!DOCTYPE svg PUBLIC "-//W3C//DTD SVG 1.1//EN" "http://www.w3.org/Graphics/SVG/1.1/DTD/svg11.dtd">
<svg version="1.1" id="图层_1" xmlns="http://www.w3.org/2000/svg" xmlns:xlink="http://www.w3.org/1999/xlink" x="0px" y="0px"
	 width="316.059px" height="282.945px" viewBox="0 0 316.059 282.945" enable-background="new 0 0 316.059 282.945"
	 xml:space="preserve">
<path fill="#414041" d="M211.056,123.089h-21.473l-0.014-9.849c0-1.493-0.746-2.361-1.998-2.361h-46.323
	c-1.247,0-1.992,0.868-1.992,2.323v11.359H125.81c-0.754,0-1.525,0.693-1.719,1.544l-0.108,0.288l-10.605,19.184
	c-0.407,0.55-0.575,1.136-0.575,1.836v20.531c0,1.457,0.746,2.325,1.992,2.325h4.762l0.154,0.911
	c0.774,4.588,4.483,7.793,9.014,7.793s8.24-3.205,9.014-7.793l0.154-0.911h26.957l0.153,0.911c0.774,4.588,4.483,7.793,9.014,7.793
	c4.531,0,8.24-3.205,9.015-7.793l0.153-0.911h4.39c1.252,0,1.998-0.868,1.998-2.325v-15.739h3.296c1.209,0,2.191-1.082,2.191-2.411
	c0-1.449-1.192-1.752-2.191-1.752h-3.296v-8.233h12.455c1.056,0,2.191-0.659,2.191-2.106c0-1.258-0.922-2.17-2.191-2.17h-12.455
	v-8.208h21.176c1.195,0,2.061-0.864,2.061-2.054C212.809,124.263,212.351,123.089,211.056,123.089z M127.04,129.217h12.216v15.868
	h-21.077L127.04,129.217z M128.725,174.951c-3.176,0-5.396-2.289-5.396-5.562c0-3.276,2.22-5.562,5.396-5.562
	s5.394,2.285,5.394,5.562C134.118,172.662,131.901,174.951,128.725,174.951z M137.369,166.019l-0.188-0.473
	c-1.412-3.541-4.653-5.743-8.456-5.743c-3.566,0-6.62,1.94-8.171,5.191l-0.299,0.62h-3.461v-15.871h22.469l0.04,16.275H137.369z
	 M174.017,174.951c-3.176,0-5.396-2.289-5.396-5.562c0-3.276,2.221-5.562,5.396-5.562c3.177,0,5.395,2.285,5.395,5.562
	C179.411,172.662,177.193,174.951,174.017,174.951z M170.582,127.323h15.096v8.208h-15.096c-1.228,0-2.152,0.992-2.152,2.308
	c0,1.452,1.113,1.968,2.152,1.968h15.096v8.233h-15.096c-1.275,0-2.166,0.878-2.166,2.134c0,1.496,1.167,2.029,2.166,2.029h15.096
	v13.781h-3.033l-0.285-0.66c-1.463-3.404-4.659-5.521-8.343-5.521c-3.683,0-6.879,2.117-8.342,5.521l-0.285,0.66h-22.445v-50.783
	h42.845v7.887h-14.9c-1.198,0-2.334,1.139-2.334,2.342C168.555,126.828,169.648,127.323,170.582,127.323z"/>
</svg>
